<?xml version="1.0" encoding="utf-8"?>
<svg version="1.1" xmlns="http://www.w3.org/2000/svg" x="0px" y="0px"
     viewBox="0 0 600 600" style="enable-background:new 0 0 600 600;" xml:space="preserve">
    <g id="logo">
        <g id="circle" fill="#1A202c">
			<circle mask="url(#leaf)" cx="300" cy="300" r="280"/>
		</g>
        <mask id="leaf">
			<rect x="0" y="0" width="600" height="600" fill="white"/>
        	<path fill="black" d="M291.28,169.48c-1.21,2.36-1.06,5.24-0.77,6.38c0.07,0.27,0.27,0.98,0.19,1.91c-0.01,0.08-0.06,0.61-0.26,1.21
		c-0.66,1.97-3.5,6.32-4.47,7.91c-1.03,1.68-1.58,2.95-2.55,5.17c-0.97,2.21-1.54,3.86-1.85,5.81c-0.15,0.92-0.06,0.8-0.19,1.47
		c-0.47,2.42-1.53,3.62-2.49,5.49c-0.7,1.36-1,2.42-1.6,4.53c-1.12,3.96-1.1,7.27-1.09,9c0.01,0.72,0.16,9.22,3.19,14.74
		c0.4,0.73,1.46,2.52,2.23,5.17c0.46,1.56,0.29,1.63,0.7,2.81c0.63,1.81,1.17,2.07,3.15,5.32c1.1,1.8,1.07,1.95,2.3,3.91
		c0.9,1.44,1,1.49,1.62,2.55c1.19,2.04,1.14,2.38,1.87,3.23c0.58,0.68,0.95,0.86,2.64,2.04c1.82,1.27,3.19,2.32,3.49,2.55
		c0.87,0.68,1.49,1.27,4.51,4.77c2.74,3.16,4.1,4.75,4.94,5.87c0,0,1.83,2.47,3.74,6.04c0.87,1.61,1.69,3.34,1.45,5.28
		c-0.09,0.7-0.31,1.45-0.34,1.53c-0.5,1.64-1.29,2.72-1.53,3.06c-1.9,2.68-2.25,5.19-5.62,10.13c-2.72,3.99-5.79,7.2-6.72,8.17
		c-0.46,0.49-1.69,1.75-3.32,3.57c-0.9,1.01-1.49,1.71-2.64,3.06c-3.56,4.21-5.34,6.31-5.53,6.89c-0.15,0.45-0.73,2.33-1.79,2.72
		c-0.07,0.03-0.54,0.19-1.19,0.34c-0.63,0.14-0.71,0.1-0.94,0.17c-0.91,0.27-0.91,1.36-2.13,3.06c-0.57,0.8-0.97,1.12-1.19,1.28
		c-0.4,0.29-1.2,0.87-1.96,0.6c-0.45-0.16-0.68-0.54-0.77-0.68c-0.36-0.59-0.23-1.1-0.17-2.38c0,0,0.05-1.01,0-2.47
		c-0.04-1.09-0.14-1.87-0.17-2.13c-0.33-2.9,1.27-7.59,1.79-13.7c0.23-2.69,0.1-3.91,0-4.6c-0.37-2.61-1.36-5.02-1.36-5.02
		c-0.59-1.44-1.08-2.16-1.28-3.66c-0.13-0.96,0-1.21-0.09-2.21c-0.15-1.8-0.75-3.09-1.11-3.91c-2.18-5.02-1.62-6.58-4-10.72
		c-0.77-1.35-0.42-0.47-4.09-5.7c-2.77-3.95-2.81-4.23-4.17-5.96c-1.3-1.65-2.6-3.03-5.19-5.79c-2.09-2.23-4.26-4.43-4.26-4.43
		c-1-1.02-1.97-2.06-2.98-3.06c-0.99-0.98-1.51-1.46-2.21-2.38c-0.62-0.81-1.05-1.55-1.45-2.21c-0.49-0.83-0.92-1.56-1.28-2.38
		c-0.72-1.68-0.54-2.43-0.94-3.91c-0.44-1.65-1.01-2.06-2.21-4.17c-0.25-0.44-1.81-3.22-2.81-6.64c-0.07-0.25-0.56-2.46-1.53-6.89
		c-0.15-0.68-0.43-1.97-1.19-3.49c-0.77-1.55-1.53-2.32-1.87-2.64c-0.7-0.65-1.42-1.34-2.55-1.45c-1.03-0.1-1.81,0.34-1.96,0.43
		c-0.14,0.08-0.74,0.44-1.19,1.19c-0.52,0.87-0.52,1.72-0.51,2.3c0.02,1.54,0.6,1.9,0.77,3.74c0.06,0.65,0.03,1.11,0,1.7
		c-0.08,1.51-0.36,2.45-0.77,4.17c-0.34,1.43-0.01,0.21-0.85,3.91c-0.54,2.4-0.97,4.2-1.02,4.43c-1.39,5.88-1.53,7.15-2.81,12.43
		c-1.2,4.95-1.8,7.42-2.3,8.77c-0.27,0.72-0.98,2.61-1.53,5.19c-0.45,2.13-0.49,3.29-0.43,4.26c0.11,1.71,0.57,3.16,0.6,3.23
		c0.26,0.81,0.41,0.98,0.6,1.7c0.37,1.39,0.28,2.51,0.26,2.98c-0.08,1.6,0.29,3.08,1.02,6.04c0.88,3.54,2.14,6.2,2.72,7.4
		c1.13,2.34,1.89,3.32,2.64,5.53c0.15,0.45,0.43,1.31,0.94,2.47c0.29,0.66,0.38,0.77,1.28,2.55c1,1.98,1.02,2.08,1.36,2.64
		c0.54,0.87,0.77,1.06,1.53,2.13c1.05,1.47,1.34,2.11,1.87,2.89c0.93,1.37,1.96,2.18,4,3.74c1.22,0.94,1.78,1.27,6.38,4.17
		c3.73,2.35,3.87,2.45,4.51,2.72c0.36,0.15,1.01,0.41,5.87,1.79c2.7,0.76,2.42,0.66,2.72,0.77c1.6,0.54,4.36,1.51,6.98,3.91
		c1.84,1.69,2.83,3.38,3.49,4.51c0.06,0.11,0.67,1.15,1.19,2.64c0.46,1.31,0.48,1.87,0.43,2.3c-0.1,0.85-0.5,1.44-0.68,1.7
		c-1.97,2.93-3.67,6.05-5.7,8.94c-2.15,3.06-2.62,3.83-3.91,5.28c-0.67,0.75-1.28,1.36-2.47,2.55c-0.82,0.82-2.63,2.63-4.68,4.51
		c-3.07,2.82-5.72,4.92-8.43,7.06c-4.68,3.7-3.89,2.8-9.7,7.32c-3.03,2.36-4.56,3.63-6.81,4.94c-4.12,2.4-4.6,2.64-4.6,2.64
		c-0.73,0.37-1.16,0.57-1.79,1.02c-0.99,0.71-1.15,1.11-2.72,2.64c-0.9,0.87-1.43,1.31-2.13,1.7c-1.28,0.73-1.79,0.58-1.96,0.51
		c-0.51-0.2-0.74-0.73-0.94-1.19c-0.56-1.35-0.38-2.62-0.34-2.89c0.47-3.02,2.17-3.5,2.98-6.64c0.26-1.02,0.29-2.02,0.34-4
		c0.06-2.3-0.16-2.57-0.17-5.19c-0.01-2.06,0.13-3.64,0.26-5.19c0.19-2.27,0.28-3.4,0.51-4.34c0.54-2.24,1.11-2.63,1.53-4.94
		c0.29-1.63,0.26-2.85,0.26-3.15c-0.06-1.75-0.44-3.08-0.85-4.34c-1-3.1-1.74-5.37-3.4-8.51c-1.72-3.24-2.09-2.99-3.49-5.96
		c-0.8-1.7-0.76-1.96-2.3-5.7c-0.77-1.87-1.43-3.49-2.38-5.53c-1.79-3.85-3.28-6.34-3.66-6.98c-1.05-1.75-1.7-2.81-2.81-4.17
		c-0.52-0.64-1.34-1.5-2.98-3.23c-2.42-2.56-2.52-2.58-2.98-3.23c-1.1-1.57-0.84-1.87-2.13-3.83c-0.59-0.89-0.61-0.79-2.3-2.98
		c-1.43-1.86-2.14-2.79-2.81-3.83c-1.44-2.25-1.14-2.44-2.04-3.4c-0.4-0.43-1.89-1.92-4.28-2.36c-0.78-0.14-2.2-0.4-3.57,0.32
		c-0.31,0.16-0.84,0.49-1.79,1.72c-0.45,0.58-1.54,2.08-2.81,5.3c-0.69,1.75-1.04,2.65-1.15,3.83c-0.15,1.66,0.15,3.06,0.19,3.26
		c0.24,1.06,0.47,1.27,0.83,2.87c0.2,0.89,0.32,1.43,0.32,2.17c0,0.75-0.12,1.05-0.32,2.23c-0.24,1.46-0.16,1.62-0.32,2.62
		c-0.17,1.06-0.4,1.7-1.09,3.64c-0.47,1.34-0.92,2.69-1.4,4.02c-0.98,2.68-1.05,5.53-1.13,11.11c-0.06,4.03-0.11,7.24,0.47,11.66
		c0.51,3.92,1.26,6.87,1.57,8.04c0.02,0.09,0.01,0.05,2.13,6.51c0.74,2.25,1.12,3.42,2.04,4.89c0.75,1.19,1.56,2.14,2.17,2.77
		c0.89,0.92,1.66,1.53,2.47,2.13c2,1.5,3.4,2.41,5.19,3.62c2.75,1.85,4.15,2.8,5.57,3.96c0.87,0.71,1.63,1.39,3.15,2.77
		c2.34,2.12,3.51,3.18,4.51,4.26c1.33,1.44,2.29,2.76,4.21,5.4c0,0,1,1.38,2.43,3.83c0.02,0.04,0.42,0.73,0.81,1.7
		c0.29,0.73,0.44,1.1,0.43,1.53c-0.02,0.58-0.27,0.92-0.85,1.83c-1.44,2.24-1.2,2.14-1.53,2.43c-0.74,0.63-1.01,0.33-2.89,1.32
		c-0.71,0.37-1.06,0.56-1.45,0.89c-0.98,0.86-0.77,1.38-1.53,2.04c-0.79,0.68-1.29,0.37-2.85,1.02c-0.34,0.14-1.3,0.55-2.21,1.32
		c-1.56,1.32-1.41,2.37-2.89,3.53c-0.23,0.18-0.71,0.53-2.09,1.06c-2.66,1.03-4.88,1.3-5.83,1.45c-5.22,0.8-9.58,3.67-12.09,5.32
		c-0.63,0.42-1.5,1.03-2.98,1.91c-1.35,0.8-1.83,1.01-2.89,1.74c-1.31,0.91-1.27,1.08-2.04,1.53c-1.33,0.77-2.19,0.7-3.83,1.06
		c-1.93,0.43-3.28,1.12-4.77,1.87c-2.4,1.22-3.59,1.82-4.64,3.11c-0.47,0.58-0.83,1.18-1.7,1.83c-0.89,0.66-1.71,0.91-2.43,1.15
		c-1.5,0.49-2.93,1.17-4.43,1.66c-1.17,0.38-1.97,0.74-9.36,4.47c-6.79,3.43-7.81,3.99-8.6,4.43c-2.73,1.52-4.77,2.77-6.89,4.3
		c-2.61,1.88-1.74,1.59-3.49,2.77c0,0-1.61,1.08-2.96,2.88c-0.12,0.16-0.36,0.5-0.3,0.89c0.06,0.41,0.4,0.66,0.48,0.72
		c0.58,0.4,1.38,0.18,1.76,0.08c1.25-0.34,2.55-0.5,3.77-0.96c1.69-0.63,1.1-0.24,4.61-1.34c2.22-0.7,4.48-1.4,7.2-2.54
		c1.36-0.57,7.09-2.96,10.99-5.99c0.29-0.22,1.31-1.03,2.77-2.02c0.96-0.66,1.96-1.33,3.34-2.06c0.74-0.39,1.47-0.72,2.94-1.36
		c1.33-0.59,1.48-0.63,3.3-1.4c1.49-0.64,2.64-1.15,3.98-1.74c1.49-0.66,2.23-0.99,2.89-1.3c3.55-1.64,6.21-3.2,8.83-4.73
		c1.69-0.99,2.3-1.4,2.78-1.72c1.66-1.15,1.75-1.44,3.38-2.59c1.86-1.3,2.07-1.15,3.41-2.23c1.42-1.15,1.34-1.44,2.3-2.01
		c1.17-0.7,1.58-0.44,3.93-1.02c2.25-0.56,2.26-0.9,5.39-1.76c0.28-0.08,1.32-0.36,2.71-0.64c1.17-0.24,1.82-0.36,2.68-0.41
		c0,0,1.27-0.07,2.68,0.13c2.11,0.3,4.64,1.35,8.14,3.35c2.54,1.45,4.24,2.43,6.38,4.15c3.18,2.55,3.06,3.3,5.87,5.11
		c2,1.28,2.84,1.4,4.15,2.81c0.99,1.07,0.86,1.38,2.62,3.77c1.07,1.44,1.97,2.49,2.74,3.38c1.31,1.52,1.97,2.27,2.74,2.94
		c1.21,1.03,1.37,0.87,3.13,2.3c1.52,1.23,2.09,1.92,2.43,2.36c0.68,0.9,0.79,1.35,1.21,2.04c1.45,2.38,4.02,3.42,5.04,3.83
		c2.24,0.9,2.33,0.15,5.17,1.21c1.64,0.62,2.2,1.09,3.7,1.28c0.87,0.11,1.68,0.03,3.26-0.13c1.79-0.18,2.53-0.37,4.02-0.57
		c1.7-0.24,2.93-0.3,4.6-0.38c2.54-0.13,3.83-0.05,7.09,0c2.39,0.03,1.41-0.02,6.89,0c14.18,0.04,10.16,0.34,11.68,0.26
		c1.13-0.06,2.06-0.16,3.23,0.26c1.49,0.52,1.85,1.31,3.23,1.36c0.77,0.03,1.58-0.18,2.21-0.34c0.79-0.2,0.87-0.31,1.62-0.51
		c0.37-0.1,1.36-0.35,2.47-0.34c1.36,0.01,1.34,0.41,2.81,0.51c1.37,0.09,2.36-0.18,2.89-0.34c0.91-0.27,1.43-0.43,1.79-0.94
		c0.47-0.67,0.34-1.5,0.26-2.04c-0.05-0.29-0.22-1.16-0.94-2.04c-0.84-1.02-1.89-1.41-2.38-1.62c-2.45-1.04-4-3.2-5.26-4.94
		c-1.91-2.66-1.51-3.89-3.43-5.19c-0.42-0.29-0.28-0.14-2.55-1.36c-0.81-0.44-1.66-0.92-3.32-1.87c-2.06-1.18-3.09-1.77-3.23-1.87
		c-2.18-1.53-2.09-2.24-4-3.4c-1.62-0.99-2.24-0.46-3.4-1.45c-1.06-0.89-0.76-1.37-1.96-2.66c-0.69-0.74-1.57-1.28-3.32-2.36
		c-0.75-0.46-1.49-0.88-2.98-1.7c-0.55-0.3-1.59-0.88-2.98-1.62c-1.29-0.68-1.18-0.6-1.83-0.96c-1.08-0.6-1.29-0.78-2.85-1.68
		c-1.3-0.75-1.17-0.64-1.74-1c-1.22-0.76-1.29-0.96-2.49-1.72c-1.1-0.7-1.64-1.05-2.4-1.28c-0.87-0.26-1.12-0.13-2.13-0.43
		c-0.93-0.27-1.31-0.56-1.96-0.85c-0.84-0.38-1.25-0.37-4.9-0.7c-1.76-0.16-2.65-0.24-3.29-0.32c-1.11-0.13-2.04-0.28-3.89-0.57
		c-2.71-0.43-2.79-0.48-3.57-0.53c-1.3-0.09-1.42,0.02-3.06-0.09c-1.41-0.09-2.14-0.14-2.98-0.43c-1.21-0.41-1.27-0.81-2.38-1.28
		c-1.32-0.56-1.92-0.29-3.83-0.51c-2.54-0.29-2.3-0.86-4.51-1.11c-2.26-0.25-2.24,0.37-5.11,0.17c-1.83-0.13-2.2-0.41-3.83-0.34
		c-1.91,0.08-2.85,0.52-2.98,0.26c-0.2-0.41,2-1.76,5.19-4.09c3.23-2.35,2.77-2.28,5.62-4.34c3.74-2.7,4.1-2.5,7.23-4.85
		c3.36-2.51,2.95-2.74,5.55-4.49c2.71-1.83,3.17-1.59,7.13-4.02c2.94-1.81,4.42-2.71,5.36-3.74c1.42-1.56,2.04-2.95,4.26-4.6
		c1.5-1.12,2.25-1.24,2.64-1.28c1.22-0.1,2.11,0.46,4.17,1.7c1.33,0.8,2.67,1.58,4,2.38c4.1,2.49,4.91,2.2,8.17,4.43
		c2.25,1.54,3.23,2.6,3.49,2.89c1.54,1.71,2.18,3.22,2.72,4.26c1.23,2.35,3.01,3.91,6.55,7.02c5.29,4.65,10.2,7.04,11.23,7.53
		c4.8,2.29,8.86,3.22,10.6,3.57c1.89,0.38,5.01,1,9.06,0.89c2.37-0.06,8.5-0.45,10.6-0.77c0.23-0.04,1-0.16,2.04-0.13
		c0.37,0.01,0.81,0.04,1.4,0.13c1.48,0.21,2.6,0.57,2.81,0.64c0.44,0.13,1.64,0.41,7.66-1.28c1.64-0.46,4.05-1.18,6-1.79
		c1.04-0.32,1.97-0.62,3.32-0.89c1.52-0.31,2.82-0.45,3.57-0.51c2.39-0.2,2.66,0.06,4.21-0.26c0.9-0.18,1.53-0.42,2.81-0.89
		c1.99-0.74,2.29-1.08,4.09-1.66c1.12-0.36,2.17-0.61,2.3-0.64c2.03-0.47,2.19-0.27,2.81-0.64c1.39-0.84,1.78-2.6,1.91-3.19
		c0.18-0.83,0.17-1.56,0.13-1.91c-0.39-3.17-6.73-4.67-16.31-9.65c-1.25-0.65-1.39-0.75-2.92-1.54c-4.06-2.08-5.38-2.55-9.62-4.6
		c-1.34-0.65-3.36-1.68-7.4-3.74c-4.78-2.44-5.28-2.74-5.79-3.06c-3.68-2.34-3.37-3.08-6.64-5.11c-2.08-1.29-4.66-2.88-8.16-3.16
		c-1.44-0.12-3.15-0.02-4.56,0.06c-1.11,0.06-2.47,0.14-4.21,0.41c-2.03,0.31-2.11,0.5-3.7,0.67c-1.83,0.2-1.89-0.03-3.7,0.16
		c-0.94,0.1-1.29,0.2-3.96,0.73c-1.62,0.33-3.06,0.6-3.57,0.7c-4.21,0.8-4.57,0.38-8.2,1.05c-3.1,0.58-3.24,0.96-5.78,1.21
		c-0.4,0.04-2.21,0.21-4.6,0.13c-1.26-0.05-2.11-0.14-3.38-0.29c-4.25-0.48-4.67-0.93-4.85-1.24c-0.47-0.79-0.13-1.82,0.19-2.78
		c0.61-1.82,1.75-2.96,2.04-3.26c6.13-6.16,7.21-9.63,12.38-12.61c0.73-0.42,2.06-1.13,3.57-2.49c1.39-1.25,2.41-2.58,3.13-3.51
		c0.96-1.25,1.04-1.53,2.3-3.19c0.76-1,1.55-1.99,2.04-2.55c1.89-2.18,3.23-2.71,5.43-4.47c1.42-1.14,2.86-2.78,5.74-6.06
		c2.34-2.66,2.93-3.56,4.83-5.32c2.96-2.74,4.22-3.04,4.94-3.14c1.96-0.25,3.64,0.58,4.85,1.18c1.85,0.92,2.99,2.1,3.4,2.55
		c1.41,1.55,1.97,3.08,2.38,4.09c1.26,3.11,1.3,1.91,4.85,8.68c3.3,6.28,3.12,7.02,4.85,8.43c0.88,0.71,2.51,1.5,5.79,3.06
		c2.71,1.3,4.07,1.95,5.53,2.47c4.62,1.64,8.78,1.9,10.3,1.96c3.55,0.13,4.42-0.4,6.98,0.26c0.79,0.2,2.11,0.61,4.09,0.85
		c0.8,0.1,1.78,0.21,3,0.16c1.87-0.09,2.63-0.51,4-0.77c0.9-0.17,1.63-0.19,5.85,0.36c5.73,0.75,5.12,0.87,6.72,0.94
		c1.47,0.06,1.25-0.07,7.32-0.51c4.44-0.32,4.34-0.23,5.19-0.43c2.26-0.51,3.17-1.19,5.96-1.57c1.52-0.21,2.5-0.18,2.77-0.17
		c1.96,0.07,2.2,0.5,3.79,0.6c0.46,0.03,0.73,0.01,4.81-0.77c2.04-0.39,2.8-0.54,3.49-0.68c1.18-0.24,2.61-0.55,4.34-1.11
		c2.04-0.66,2.39-0.98,2.55-1.36c0.42-0.95-0.34-2.12-0.68-2.64c-0.88-1.36-1.83-1.64-3.49-2.85c-1.92-1.4-1.44-1.59-3.53-3.23
		c-1.66-1.31-3.13-2.1-4.77-2.98c-1.78-0.95-2.46-1.18-4.09-1.96c-1.58-0.76-2.14-1.12-6.72-3.83c-4.46-2.63-6.68-3.95-8.17-4.77
		c-2.95-1.63-3.32-1.71-5.45-2.98c-1.5-0.89-3.03-1.73-4.51-2.64c-0.75-0.46-1.24-0.78-2.04-1.11c-1.46-0.6-2.32-0.59-3.49-0.85
		c-0.69-0.16-0.95-0.29-4.26-1.96c-3.14-1.58-4.72-2.38-5.36-2.64c-1.85-0.74-3.36-1.14-4.51-1.45c-1.87-0.49-3.26-0.73-5.02-1.02
		c-0.71-0.12-1.94-0.32-7.06-0.94c-3.71-0.45-3.55-0.4-5.7-0.68c-3.21-0.41-3.48-0.5-5.28-0.68c-2.74-0.28-4.15-0.41-5.79-0.26
		c-1.04,0.1-2.75,0.28-4.77,1.11c-1.69,0.7-1.45,0.98-3.15,1.7c-3.26,1.4-5.52,0.96-6.3,0.77c-0.68-0.17-1.55-0.4-1.75-1.02
		c-0.23-0.73,0.65-1.49,1.52-2.61c1.32-1.69,1.41-2.67,2.3-4.4c1.32-2.58,2.73-3.56,5.3-6.41c6.08-6.75,5.31-9.14,8.84-10.47
		c2.18-0.82,4.38-0.63,7.21-0.38c3.16,0.28,5.51,1.07,6.45,1.4c3.47,1.26,5.39,2.89,7.79,4.6c4.38,3.12,7.93,4.75,13.45,7.3
		c8.88,4.1,11.57,3.82,12.66,3.49c0.38-0.12,1.76-0.61,3.47-0.31c0.94,0.17,1.21,0.44,2.29,0.81c0.42,0.15,2.26,0.75,4.46,0.65
		c1.09-0.05,2.98-0.13,4.79-1.15c0.46-0.26,1.1-0.69,2.04-0.74c0.86-0.05,1.51,0.23,1.84,0.36c1.22,0.48,2.71,0.51,5.69,0.57
		c0.79,0.01,2.59,0.02,4.85-0.25c1.24-0.15,5.16-0.69,9.89-2.55c1.68-0.66,2.84-1.25,5.3-2.04c2.02-0.65,3.14-0.87,4.4-0.83
		c1.41,0.05,1.92,0.38,3.45,0.7c2.58,0.54,4.67,0.32,5.94,0.19c3.5-0.36,6.1-1.62,7.34-2.23c2.73-1.35,3.87-2.58,6.54-3.44
		c2.45-0.78,2.72-0.84,2.72-0.84c1.54-0.33,2.24-0.24,2.74-0.83c0.52-0.61,0.51-1.54,0.32-2.17c-0.19-0.61-0.63-1.18-2.74-2.43
		c-1.21-0.71-1.75-0.92-2.94-1.53c-1.48-0.76-1.26-0.75-4.53-2.62c-1.34-0.76-2.08-1.17-3.57-1.98c-1.79-0.97-2.06-1.09-2.36-1.21
		c-1.26-0.5-1.88-0.52-3.83-0.96c-1.62-0.37-1.56-0.44-3.38-0.89c-2.13-0.53-2.43-0.48-5.3-1.09c-2.28-0.48-3.8-0.8-5.81-1.4
		c-1.09-0.33-2.45-0.74-4.15-1.47c-1.86-0.79-2.44-1.24-5.04-2.62c-1.35-0.72-2.79-1.41-5.68-2.81c-0.93-0.45-3.29-1.58-6.19-2.81
		c-1.06-0.45-2.12-0.88-3.57-1.21c-0.35-0.08-1.07-0.2-2.49-0.45c-1.94-0.33-2.92-0.5-3.32-0.51c-1.67-0.06-1.94,0.36-3.57,0.45
		c-1.51,0.08-2.07-0.24-4.02-0.57c-2.23-0.39-3.89-0.38-6.32-0.38c-2.14,0-3.79,0-6,0.38c-2.64,0.46-4.58,1.2-5.94,1.72
		c-1.97,0.77-3.33,1.5-6.04,2.96c-2.1,1.13-3.81,2.15-4.7,2.68c-2.26,1.36-2.76,1.77-4.96,3.02c-1.01,0.58-1.76,0.97-3.26,1.77
		c-2.03,1.08-2.57,1.32-3.11,1.53c-1.16,0.46-0.85,0.22-2.74,0.89c-1.23,0.44-1.69,0.66-2.36,0.51c-0.73-0.16-1.19-0.63-1.39-0.84
		c-0.73-0.75-1.09-1.85-0.92-2.84c0.12-0.72,0.48-0.93,1.02-1.87c0.7-1.24,0.8-1.85,1.32-3.15c0.98-2.45,2.23-4.21,2.98-5.28
		c1-1.42,1.92-2.43,2.38-2.94c1.14-1.23,2.41-2.59,4.23-3.66c0.56-0.33,1.79-0.99,5.11-1.72c3.05-0.67,4.92-0.75,8.3-1.09
		c4.01-0.39,6.01-0.59,8.23-1.02c2.39-0.46,3.5-0.89,10.09-3.26c10.6-3.8,10.49-3.67,11.43-4.21c2.92-1.7,5.16-3.69,9.64-7.66
		c1.84-1.63,2.81-2.6,3.7-3.57c2.06-2.26,3.25-4.07,4.79-6.38c4.5-6.76,3.26-4.63,6.7-9.89c1.95-2.98,4.35-5.71,5.87-8.94
		c0.92-1.95,2.26-5.26,5.11-6.45c0.42-0.18,0.8-0.27,1.34-0.64c1.77-1.19,1.49-2.7,2.81-5.04c1.42-2.52,3.21-3.39,3.64-5.49
		c0.21-1.02-0.06-1.57-0.19-1.79c-0.29-0.49-0.75-0.73-1.15-0.89c-1.92-0.81-4.12-0.65-5.3-0.51c-1.84,0.21-1.72,0.44-3.38,0.57
		c-1.6,0.13-1.69-0.07-3.7,0c-2.04,0.07-3.06,0.11-4.28,0.57c-0.96,0.36-1.22,0.66-2.43,1.02c-0.87,0.26-1.47,0.32-2.36,0.45
		c0,0-0.98,0.14-3.89,0.7c-4.42,0.85-5.49,5.98-10.21,6.77c-1.65,0.28-1.43-0.37-4.85-0.26c-2.22,0.07-3.81,0.4-6.26,0.89
		c-4.2,0.85-5.34,1.54-5.74,1.79c-0.92,0.58-1.7,1.27-2.43,1.91c-1.81,1.6-1.93,2.14-3.19,2.94c-0.99,0.62-1.83,0.87-3.19,1.28
		c-1.73,0.51-1.74,0.27-4.21,0.89c-1.62,0.41-2.68,0.78-3.57,1.15c-0.75,0.31-1.29,0.58-1.4,0.64c-1.16,0.59-1.72,1.02-3.06,1.91
		c-2.5,1.67-2.55,1.51-3.45,2.3c-0.88,0.77-1.47,1.49-1.91,2.04c-0.86,1.05-1.46,2.02-1.91,2.81c-1.34,2.34-2.11,4.48-2.68,6
		c-3.03,8.12-3.67,7.89-3.83,10.47c-0.15,2.33,0.71,3.46-0.13,5.36c-0.58,1.32-1.16,1.36-2.6,3.57c-1.04,1.6-1.67,3.03-2.13,4.09
		c-1.2,2.74-0.89,3.02-1.74,4.17c-1.12,1.51-1.78,1.21-3.11,2.85c-1.11,1.37-1.61,2.71-1.91,3.7c-0.81,2.64-0.35,3.04-1.15,5.23
		c-0.67,1.83-1.09,1.86-1.4,3.32c-0.41,1.95,0.28,2.2,0,3.96c-0.35,2.18-1.74,3.8-3.32,5.62c-0.31,0.36-0.93,1.01-2.17,2.3
		c-1.07,1.12-1.53,1.57-2.04,2.04c-0.77,0.71-1.04,1.35-1.79,1.53c-0.14,0.04-0.72,0.18-1.15-0.13c-0.45-0.33-0.49-0.98-0.51-1.28
		c-0.07-0.92-0.2-0.04-1.15-3.7c-0.33-1.28-0.84-3.24-1.28-5.94c-0.24-1.47-0.62-3.87-0.7-6.96c-0.07-2.62,0.12-4.64,0.51-8.68
		c0.18-1.85,0.38-3.98,0.83-6.83c0.56-3.56,0.84-5.33,1.21-6.96c0.58-2.51,1.08-3.9,0.64-5.87c-0.21-0.94-0.46-1.24-0.45-2.11
		c0.02-1.6,0.87-2.13,1.79-4.21c0.86-1.95,1.06-3.63,1.15-4.4c0.05-0.43,0.21-1.98-0.06-4.02c-0.17-1.31-0.41-1.95-1.28-4.72
		c-1.2-3.82-1.8-5.73-1.91-6.38c-0.23-1.33-0.37-2.74-1.02-4.85c-0.46-1.47-0.77-2.01-1.28-2.43c-0.98-0.8-1.87-0.48-2.68-1.28
		c-0.5-0.49-0.64-1.08-0.83-2.43c-0.69-4.75-0.11-5.23-0.89-6.38c-0.7-1.02-1.47-1.12-2.3-2.68c-0.4-0.75-0.56-1.37-0.64-1.66
		c-0.62-2.26-1.88-4.52-4.17-8.66c-2.49-4.48-2.45-3.51-3.02-5.06c0,0-0.61-1.68-2.43-3.7c-0.08-0.09-0.28-0.31-0.6-0.38
		c-0.65-0.16-1.29,0.39-1.57,0.64C291.53,169.08,291.48,169.08,291.28,169.48z"/>
		</mask>
	</g>
</svg>
